<?xml version="1.0" encoding="UTF-8" standalone="no"?>
<!DOCTYPE svg PUBLIC "-//W3C//DTD SVG 1.1//EN"
 "http://www.w3.org/Graphics/SVG/1.1/DTD/svg11.dtd">
<!-- Generated by graphviz version 2.43.20190912.0211 (20190912.0211)
 -->
<!-- Title: top Pages: 1 -->
<svg width="641pt" height="1361pt"
 viewBox="0.00 0.00 641.11 1360.50" xmlns="http://www.w3.org/2000/svg" xmlns:xlink="http://www.w3.org/1999/xlink">
<g id="graph0" class="graph" transform="scale(1 1) rotate(0) translate(4 1356.5)">
<title>top</title>
<polygon fill="white" stroke="transparent" points="-4,4 -4,-1356.5 637.11,-1356.5 637.11,4 -4,4"/>
<text text-anchor="middle" x="316.56" y="-7.8" font-family="Times,serif" font-size="14.00">top</text>
<!-- n1 -->
<g id="node1" class="node">
<title>n1</title>
<polygon fill="none" stroke="black" points="187.44,-60.54 187.44,-75.46 149.4,-86 95.6,-86 57.56,-75.46 57.56,-60.54 95.6,-50 149.4,-50 187.44,-60.54"/>
<text text-anchor="middle" x="122.5" y="-64.3" font-family="Times,serif" font-size="14.00">clk_12mhz</text>
</g>
<!-- x0 -->
<g id="node29" class="node">
<title>x0</title>
<ellipse fill="black" stroke="black" cx="282.8" cy="-79" rx="1.8" ry="1.8"/>
</g>
<!-- n1&#45;&gt;x0 -->
<g id="edge1" class="edge">
<title>n1:e&#45;&gt;x0:w</title>
<path fill="none" stroke="black" d="M188.5,-68C226.34,-68 237.7,-77.19 270.99,-78.77"/>
<polygon fill="black" stroke="black" points="270.92,-82.27 281,-79 271.08,-75.27 270.92,-82.27"/>
</g>
<!-- x1 -->
<g id="node30" class="node">
<title>x1</title>
<ellipse fill="black" stroke="black" cx="282.8" cy="-49" rx="1.8" ry="1.8"/>
</g>
<!-- n1&#45;&gt;x1 -->
<g id="edge2" class="edge">
<title>n1:e&#45;&gt;x1:w</title>
<path fill="none" stroke="black" d="M188.5,-68C226.86,-68 237.31,-52.13 270.88,-49.4"/>
<polygon fill="black" stroke="black" points="271.14,-52.89 281,-49 270.87,-45.89 271.14,-52.89"/>
</g>
<!-- n2 -->
<g id="node2" class="node">
<title>n2</title>
<polygon fill="none" stroke="black" points="476.86,-113 362.91,-95 476.86,-77 590.81,-95 476.86,-113"/>
<text text-anchor="middle" x="476.86" y="-91.3" font-family="Times,serif" font-size="14.00">computer.clock</text>
</g>
<!-- n3 -->
<g id="node3" class="node">
<title>n3</title>
<polygon fill="none" stroke="black" points="476.86,-59 335.26,-41 476.86,-23 618.46,-41 476.86,-59"/>
<text text-anchor="middle" x="476.86" y="-37.3" font-family="Times,serif" font-size="14.00">computer.cpu.clock</text>
</g>
<!-- n4 -->
<g id="node4" class="node">
<title>n4</title>
<polygon fill="none" stroke="black" points="476.86,-275 334.42,-257 476.86,-239 619.3,-257 476.86,-275"/>
<text text-anchor="middle" x="476.86" y="-253.3" font-family="Times,serif" font-size="14.00">computer.cpu.reset</text>
</g>
<!-- n5 -->
<g id="node5" class="node">
<title>n5</title>
<polygon fill="none" stroke="black" points="476.86,-221 362.07,-203 476.86,-185 591.65,-203 476.86,-221"/>
<text text-anchor="middle" x="476.86" y="-199.3" font-family="Times,serif" font-size="14.00">computer.reset</text>
</g>
<!-- n6 -->
<g id="node6" class="node">
<title>n6</title>
<polygon fill="none" stroke="black" points="171.08,-303.54 171.08,-318.46 142.62,-329 102.38,-329 73.92,-318.46 73.92,-303.54 102.38,-293 142.62,-293 171.08,-303.54"/>
<text text-anchor="middle" x="122.5" y="-307.3" font-family="Times,serif" font-size="14.00">ps2_clk</text>
</g>
<!-- x4 -->
<g id="node33" class="node">
<title>x4</title>
<ellipse fill="black" stroke="black" cx="282.8" cy="-311" rx="1.8" ry="1.8"/>
</g>
<!-- n6&#45;&gt;x4 -->
<g id="edge11" class="edge">
<title>n6:e&#45;&gt;x4:w</title>
<path fill="none" stroke="black" d="M172.5,-311C217.14,-311 230.79,-311 270.83,-311"/>
<polygon fill="black" stroke="black" points="271,-314.5 281,-311 271,-307.5 271,-314.5"/>
</g>
<!-- n7 -->
<g id="node7" class="node">
<title>n7</title>
<polygon fill="none" stroke="black" points="178.56,-357.54 178.56,-372.46 145.72,-383 99.28,-383 66.44,-372.46 66.44,-357.54 99.28,-347 145.72,-347 178.56,-357.54"/>
<text text-anchor="middle" x="122.5" y="-361.3" font-family="Times,serif" font-size="14.00">ps2_data</text>
</g>
<!-- x5 -->
<g id="node34" class="node">
<title>x5</title>
<ellipse fill="black" stroke="black" cx="282.8" cy="-365" rx="1.8" ry="1.8"/>
</g>
<!-- n7&#45;&gt;x5 -->
<g id="edge12" class="edge">
<title>n7:e&#45;&gt;x5:w</title>
<path fill="none" stroke="black" d="M179.5,-365C220.91,-365 233.81,-365 270.54,-365"/>
<polygon fill="black" stroke="black" points="271,-368.5 281,-365 271,-361.5 271,-368.5"/>
</g>
<!-- n8 -->
<g id="node8" class="node">
<title>n8</title>
<polygon fill="none" stroke="black" points="476.86,-329 330.56,-311 476.86,-293 623.15,-311 476.86,-329"/>
<text text-anchor="middle" x="476.86" y="-307.3" font-family="Times,serif" font-size="14.00">ps2_listener.ps2_clk</text>
</g>
<!-- n9 -->
<g id="node9" class="node">
<title>n9</title>
<polygon fill="none" stroke="black" points="476.86,-383 320.84,-365 476.86,-347 632.87,-365 476.86,-383"/>
<text text-anchor="middle" x="476.86" y="-361.3" font-family="Times,serif" font-size="14.00">ps2_listener.ps2_data</text>
</g>
<!-- n10 -->
<g id="node10" class="node">
<title>n10</title>
<polygon fill="none" stroke="black" points="476.86,-167 345.48,-149 476.86,-131 608.24,-149 476.86,-167"/>
<text text-anchor="middle" x="476.86" y="-145.3" font-family="Times,serif" font-size="14.00">ps2_listener.reset</text>
</g>
<!-- n11 -->
<g id="node11" class="node">
<title>n11</title>
<polygon fill="none" stroke="black" points="159.57,-195.54 159.57,-210.46 137.86,-221 107.14,-221 85.43,-210.46 85.43,-195.54 107.14,-185 137.86,-185 159.57,-195.54"/>
<text text-anchor="middle" x="122.5" y="-199.3" font-family="Times,serif" font-size="14.00">rst_n</text>
</g>
<!-- x2 -->
<g id="node31" class="node">
<title>x2</title>
<ellipse fill="black" stroke="black" cx="282.8" cy="-241" rx="1.8" ry="1.8"/>
</g>
<!-- n11&#45;&gt;x2 -->
<g id="edge4" class="edge">
<title>n11:e&#45;&gt;x2:w</title>
<path fill="none" stroke="black" d="M160.5,-203C213.04,-203 223.59,-236.26 270.71,-240.55"/>
<polygon fill="black" stroke="black" points="270.86,-244.06 281,-241 271.16,-237.06 270.86,-244.06"/>
</g>
<!-- x3 -->
<g id="node32" class="node">
<title>x3</title>
<ellipse fill="black" stroke="black" cx="282.8" cy="-203" rx="1.8" ry="1.8"/>
</g>
<!-- n11&#45;&gt;x3 -->
<g id="edge5" class="edge">
<title>n11:e&#45;&gt;x3:w</title>
<path fill="none" stroke="black" d="M160.5,-203C210.5,-203 225.49,-203 270.84,-203"/>
<polygon fill="black" stroke="black" points="271,-206.5 281,-203 271,-199.5 271,-206.5"/>
</g>
<!-- x6 -->
<g id="node35" class="node">
<title>x6</title>
<ellipse fill="black" stroke="black" cx="282.8" cy="-165" rx="1.8" ry="1.8"/>
</g>
<!-- n11&#45;&gt;x6 -->
<g id="edge6" class="edge">
<title>n11:e&#45;&gt;x6:w</title>
<path fill="none" stroke="black" d="M160.5,-203C213.04,-203 223.59,-169.74 270.71,-165.45"/>
<polygon fill="black" stroke="black" points="271.16,-168.94 281,-165 270.86,-161.94 271.16,-168.94"/>
</g>
<!-- c12 -->
<g id="node12" class="node">
<title>c12</title>
<polygon fill="none" stroke="black" points="55,-402 55,-440 190,-440 190,-402 55,-402"/>
<text text-anchor="middle" x="65.5" y="-417.3" font-family="Times,serif" font-size="14.00"> </text>
<polyline fill="none" stroke="black" points="76,-402 76,-440 "/>
<text text-anchor="middle" x="122.5" y="-424.8" font-family="Times,serif" font-size="14.00">computer</text>
<text text-anchor="middle" x="122.5" y="-409.8" font-family="Times,serif" font-size="14.00">$scopeinfo</text>
<polyline fill="none" stroke="black" points="169,-402 169,-440 "/>
<text text-anchor="middle" x="179.5" y="-417.3" font-family="Times,serif" font-size="14.00"> </text>
</g>
<!-- c13 -->
<g id="node13" class="node">
<title>c13</title>
<polygon fill="none" stroke="black" points="45,-459 45,-497 200,-497 200,-459 45,-459"/>
<text text-anchor="middle" x="55.5" y="-474.3" font-family="Times,serif" font-size="14.00"> </text>
<polyline fill="none" stroke="black" points="66,-459 66,-497 "/>
<text text-anchor="middle" x="122.5" y="-481.8" font-family="Times,serif" font-size="14.00">computer.cpu</text>
<text text-anchor="middle" x="122.5" y="-466.8" font-family="Times,serif" font-size="14.00">$scopeinfo</text>
<polyline fill="none" stroke="black" points="179,-459 179,-497 "/>
<text text-anchor="middle" x="189.5" y="-474.3" font-family="Times,serif" font-size="14.00"> </text>
</g>
<!-- c14 -->
<g id="node14" class="node">
<title>c14</title>
<polygon fill="none" stroke="black" points="0,-516 0,-554 245,-554 245,-516 0,-516"/>
<text text-anchor="middle" x="10.5" y="-531.3" font-family="Times,serif" font-size="14.00"> </text>
<polyline fill="none" stroke="black" points="21,-516 21,-554 "/>
<text text-anchor="middle" x="122.5" y="-538.8" font-family="Times,serif" font-size="14.00">computer.cpu.calculations</text>
<text text-anchor="middle" x="122.5" y="-523.8" font-family="Times,serif" font-size="14.00">$scopeinfo</text>
<polyline fill="none" stroke="black" points="224,-516 224,-554 "/>
<text text-anchor="middle" x="234.5" y="-531.3" font-family="Times,serif" font-size="14.00"> </text>
</g>
<!-- c15 -->
<g id="node15" class="node">
<title>c15</title>
<polygon fill="none" stroke="black" points="28.5,-573 28.5,-611 216.5,-611 216.5,-573 28.5,-573"/>
<text text-anchor="middle" x="39" y="-588.3" font-family="Times,serif" font-size="14.00"> </text>
<polyline fill="none" stroke="black" points="49.5,-573 49.5,-611 "/>
<text text-anchor="middle" x="122.5" y="-595.8" font-family="Times,serif" font-size="14.00">computer.memory</text>
<text text-anchor="middle" x="122.5" y="-580.8" font-family="Times,serif" font-size="14.00">$scopeinfo</text>
<polyline fill="none" stroke="black" points="195.5,-573 195.5,-611 "/>
<text text-anchor="middle" x="206" y="-588.3" font-family="Times,serif" font-size="14.00"> </text>
</g>
<!-- c16 -->
<g id="node16" class="node">
<title>c16</title>
<polygon fill="none" stroke="black" points="0,-630 0,-668 245,-668 245,-630 0,-630"/>
<text text-anchor="middle" x="10.5" y="-645.3" font-family="Times,serif" font-size="14.00"> </text>
<polyline fill="none" stroke="black" points="21,-630 21,-668 "/>
<text text-anchor="middle" x="122.5" y="-652.8" font-family="Times,serif" font-size="14.00">computer.memory.ram16k</text>
<text text-anchor="middle" x="122.5" y="-637.8" font-family="Times,serif" font-size="14.00">$scopeinfo</text>
<polyline fill="none" stroke="black" points="224,-630 224,-668 "/>
<text text-anchor="middle" x="234.5" y="-645.3" font-family="Times,serif" font-size="14.00"> </text>
</g>
<!-- c17 -->
<g id="node17" class="node">
<title>c17</title>
<polygon fill="none" stroke="black" points="3.5,-687 3.5,-725 241.5,-725 241.5,-687 3.5,-687"/>
<text text-anchor="middle" x="14" y="-702.3" font-family="Times,serif" font-size="14.00"> </text>
<polyline fill="none" stroke="black" points="24.5,-687 24.5,-725 "/>
<text text-anchor="middle" x="122.5" y="-709.8" font-family="Times,serif" font-size="14.00">computer.memory.screen</text>
<text text-anchor="middle" x="122.5" y="-694.8" font-family="Times,serif" font-size="14.00">$scopeinfo</text>
<polyline fill="none" stroke="black" points="220.5,-687 220.5,-725 "/>
<text text-anchor="middle" x="231" y="-702.3" font-family="Times,serif" font-size="14.00"> </text>
</g>
<!-- c18 -->
<g id="node18" class="node">
<title>c18</title>
<polygon fill="none" stroke="black" points="43.5,-744 43.5,-782 201.5,-782 201.5,-744 43.5,-744"/>
<text text-anchor="middle" x="54" y="-759.3" font-family="Times,serif" font-size="14.00"> </text>
<polyline fill="none" stroke="black" points="64.5,-744 64.5,-782 "/>
<text text-anchor="middle" x="122.5" y="-766.8" font-family="Times,serif" font-size="14.00">computer.rom</text>
<text text-anchor="middle" x="122.5" y="-751.8" font-family="Times,serif" font-size="14.00">$scopeinfo</text>
<polyline fill="none" stroke="black" points="180.5,-744 180.5,-782 "/>
<text text-anchor="middle" x="191" y="-759.3" font-family="Times,serif" font-size="14.00"> </text>
</g>
<!-- c19 -->
<g id="node19" class="node">
<title>c19</title>
<polygon fill="none" stroke="black" points="48.5,-801 48.5,-839 196.5,-839 196.5,-801 48.5,-801"/>
<text text-anchor="middle" x="59" y="-816.3" font-family="Times,serif" font-size="14.00"> </text>
<polyline fill="none" stroke="black" points="69.5,-801 69.5,-839 "/>
<text text-anchor="middle" x="122.5" y="-823.8" font-family="Times,serif" font-size="14.00">ps2_decoder</text>
<text text-anchor="middle" x="122.5" y="-808.8" font-family="Times,serif" font-size="14.00">$scopeinfo</text>
<polyline fill="none" stroke="black" points="175.5,-801 175.5,-839 "/>
<text text-anchor="middle" x="186" y="-816.3" font-family="Times,serif" font-size="14.00"> </text>
</g>
<!-- c20 -->
<g id="node20" class="node">
<title>c20</title>
<polygon fill="none" stroke="black" points="49.5,-858 49.5,-896 195.5,-896 195.5,-858 49.5,-858"/>
<text text-anchor="middle" x="60" y="-873.3" font-family="Times,serif" font-size="14.00"> </text>
<polyline fill="none" stroke="black" points="70.5,-858 70.5,-896 "/>
<text text-anchor="middle" x="122.5" y="-880.8" font-family="Times,serif" font-size="14.00">ps2_listener</text>
<text text-anchor="middle" x="122.5" y="-865.8" font-family="Times,serif" font-size="14.00">$scopeinfo</text>
<polyline fill="none" stroke="black" points="174.5,-858 174.5,-896 "/>
<text text-anchor="middle" x="185" y="-873.3" font-family="Times,serif" font-size="14.00"> </text>
</g>
<!-- c21 -->
<g id="node21" class="node">
<title>c21</title>
<polygon fill="none" stroke="black" points="5.5,-915 5.5,-953 239.5,-953 239.5,-915 5.5,-915"/>
<text text-anchor="middle" x="16" y="-930.3" font-family="Times,serif" font-size="14.00"> </text>
<polyline fill="none" stroke="black" points="26.5,-915 26.5,-953 "/>
<text text-anchor="middle" x="122.5" y="-937.8" font-family="Times,serif" font-size="14.00">ps2_listener.reverser_b1</text>
<text text-anchor="middle" x="122.5" y="-922.8" font-family="Times,serif" font-size="14.00">$scopeinfo</text>
<polyline fill="none" stroke="black" points="218.5,-915 218.5,-953 "/>
<text text-anchor="middle" x="229" y="-930.3" font-family="Times,serif" font-size="14.00"> </text>
</g>
<!-- c22 -->
<g id="node22" class="node">
<title>c22</title>
<polygon fill="none" stroke="black" points="5.5,-972 5.5,-1010 239.5,-1010 239.5,-972 5.5,-972"/>
<text text-anchor="middle" x="16" y="-987.3" font-family="Times,serif" font-size="14.00"> </text>
<polyline fill="none" stroke="black" points="26.5,-972 26.5,-1010 "/>
<text text-anchor="middle" x="122.5" y="-994.8" font-family="Times,serif" font-size="14.00">ps2_listener.reverser_b2</text>
<text text-anchor="middle" x="122.5" y="-979.8" font-family="Times,serif" font-size="14.00">$scopeinfo</text>
<polyline fill="none" stroke="black" points="218.5,-972 218.5,-1010 "/>
<text text-anchor="middle" x="229" y="-987.3" font-family="Times,serif" font-size="14.00"> </text>
</g>
<!-- c23 -->
<g id="node23" class="node">
<title>c23</title>
<polygon fill="none" stroke="black" points="5.5,-1029 5.5,-1067 239.5,-1067 239.5,-1029 5.5,-1029"/>
<text text-anchor="middle" x="16" y="-1044.3" font-family="Times,serif" font-size="14.00"> </text>
<polyline fill="none" stroke="black" points="26.5,-1029 26.5,-1067 "/>
<text text-anchor="middle" x="122.5" y="-1051.8" font-family="Times,serif" font-size="14.00">ps2_listener.reverser_b3</text>
<text text-anchor="middle" x="122.5" y="-1036.8" font-family="Times,serif" font-size="14.00">$scopeinfo</text>
<polyline fill="none" stroke="black" points="218.5,-1029 218.5,-1067 "/>
<text text-anchor="middle" x="229" y="-1044.3" font-family="Times,serif" font-size="14.00"> </text>
</g>
<!-- c24 -->
<g id="node24" class="node">
<title>c24</title>
<polygon fill="none" stroke="black" points="5.5,-1086 5.5,-1124 239.5,-1124 239.5,-1086 5.5,-1086"/>
<text text-anchor="middle" x="16" y="-1101.3" font-family="Times,serif" font-size="14.00"> </text>
<polyline fill="none" stroke="black" points="26.5,-1086 26.5,-1124 "/>
<text text-anchor="middle" x="122.5" y="-1108.8" font-family="Times,serif" font-size="14.00">ps2_listener.reverser_b4</text>
<text text-anchor="middle" x="122.5" y="-1093.8" font-family="Times,serif" font-size="14.00">$scopeinfo</text>
<polyline fill="none" stroke="black" points="218.5,-1086 218.5,-1124 "/>
<text text-anchor="middle" x="229" y="-1101.3" font-family="Times,serif" font-size="14.00"> </text>
</g>
<!-- c25 -->
<g id="node25" class="node">
<title>c25</title>
<polygon fill="none" stroke="black" points="5.5,-1143 5.5,-1181 239.5,-1181 239.5,-1143 5.5,-1143"/>
<text text-anchor="middle" x="16" y="-1158.3" font-family="Times,serif" font-size="14.00"> </text>
<polyline fill="none" stroke="black" points="26.5,-1143 26.5,-1181 "/>
<text text-anchor="middle" x="122.5" y="-1165.8" font-family="Times,serif" font-size="14.00">ps2_listener.reverser_b5</text>
<text text-anchor="middle" x="122.5" y="-1150.8" font-family="Times,serif" font-size="14.00">$scopeinfo</text>
<polyline fill="none" stroke="black" points="218.5,-1143 218.5,-1181 "/>
<text text-anchor="middle" x="229" y="-1158.3" font-family="Times,serif" font-size="14.00"> </text>
</g>
<!-- c26 -->
<g id="node26" class="node">
<title>c26</title>
<polygon fill="none" stroke="black" points="5.5,-1200 5.5,-1238 239.5,-1238 239.5,-1200 5.5,-1200"/>
<text text-anchor="middle" x="16" y="-1215.3" font-family="Times,serif" font-size="14.00"> </text>
<polyline fill="none" stroke="black" points="26.5,-1200 26.5,-1238 "/>
<text text-anchor="middle" x="122.5" y="-1222.8" font-family="Times,serif" font-size="14.00">ps2_listener.reverser_b6</text>
<text text-anchor="middle" x="122.5" y="-1207.8" font-family="Times,serif" font-size="14.00">$scopeinfo</text>
<polyline fill="none" stroke="black" points="218.5,-1200 218.5,-1238 "/>
<text text-anchor="middle" x="229" y="-1215.3" font-family="Times,serif" font-size="14.00"> </text>
</g>
<!-- c27 -->
<g id="node27" class="node">
<title>c27</title>
<polygon fill="none" stroke="black" points="5.5,-1257 5.5,-1295 239.5,-1295 239.5,-1257 5.5,-1257"/>
<text text-anchor="middle" x="16" y="-1272.3" font-family="Times,serif" font-size="14.00"> </text>
<polyline fill="none" stroke="black" points="26.5,-1257 26.5,-1295 "/>
<text text-anchor="middle" x="122.5" y="-1279.8" font-family="Times,serif" font-size="14.00">ps2_listener.reverser_b7</text>
<text text-anchor="middle" x="122.5" y="-1264.8" font-family="Times,serif" font-size="14.00">$scopeinfo</text>
<polyline fill="none" stroke="black" points="218.5,-1257 218.5,-1295 "/>
<text text-anchor="middle" x="229" y="-1272.3" font-family="Times,serif" font-size="14.00"> </text>
</g>
<!-- c28 -->
<g id="node28" class="node">
<title>c28</title>
<polygon fill="none" stroke="black" points="5.5,-1314 5.5,-1352 239.5,-1352 239.5,-1314 5.5,-1314"/>
<text text-anchor="middle" x="16" y="-1329.3" font-family="Times,serif" font-size="14.00"> </text>
<polyline fill="none" stroke="black" points="26.5,-1314 26.5,-1352 "/>
<text text-anchor="middle" x="122.5" y="-1336.8" font-family="Times,serif" font-size="14.00">ps2_listener.reverser_b8</text>
<text text-anchor="middle" x="122.5" y="-1321.8" font-family="Times,serif" font-size="14.00">$scopeinfo</text>
<polyline fill="none" stroke="black" points="218.5,-1314 218.5,-1352 "/>
<text text-anchor="middle" x="229" y="-1329.3" font-family="Times,serif" font-size="14.00"> </text>
</g>
<!-- x0&#45;&gt;n2 -->
<g id="edge7" class="edge">
<title>x0:e&#45;&gt;n2:w</title>
<path fill="none" stroke="black" d="M284.6,-79C315.97,-79 324.98,-91.8 351.63,-94.5"/>
<polygon fill="black" stroke="black" points="351.7,-98.01 361.86,-95 352.04,-91.02 351.7,-98.01"/>
</g>
<!-- x1&#45;&gt;n3 -->
<g id="edge8" class="edge">
<title>x1:e&#45;&gt;n3:w</title>
<path fill="none" stroke="black" d="M284.6,-49C302.97,-49 309.48,-43.51 323.78,-41.63"/>
<polygon fill="black" stroke="black" points="324.09,-45.11 333.86,-41 323.66,-38.13 324.09,-45.11"/>
</g>
<!-- x2&#45;&gt;n4 -->
<g id="edge9" class="edge">
<title>x2:e&#45;&gt;n4:w</title>
<path fill="none" stroke="black" d="M284.6,-241C303.31,-241 308.63,-251.97 322.74,-255.74"/>
<polygon fill="black" stroke="black" points="322.5,-259.24 332.86,-257 323.36,-252.3 322.5,-259.24"/>
</g>
<!-- x3&#45;&gt;n5 -->
<g id="edge10" class="edge">
<title>x3:e&#45;&gt;n5:w</title>
<path fill="none" stroke="black" d="M284.6,-203C314.78,-203 324.81,-203 350.58,-203"/>
<polygon fill="black" stroke="black" points="350.86,-206.5 360.86,-203 350.86,-199.5 350.86,-206.5"/>
</g>
<!-- x4&#45;&gt;n8 -->
<g id="edge13" class="edge">
<title>x4:e&#45;&gt;n8:w</title>
<path fill="none" stroke="black" d="M284.6,-311C300.79,-311 307.2,-311 319.57,-311"/>
<polygon fill="black" stroke="black" points="319.86,-314.5 329.86,-311 319.86,-307.5 319.86,-314.5"/>
</g>
<!-- x5&#45;&gt;n9 -->
<g id="edge14" class="edge">
<title>x5:e&#45;&gt;n9:w</title>
<path fill="none" stroke="black" d="M284.6,-365C296.6,-365 301.85,-365 310.48,-365"/>
<polygon fill="black" stroke="black" points="310.6,-368.5 320.6,-365 310.6,-361.5 310.6,-368.5"/>
</g>
<!-- x6&#45;&gt;n10 -->
<g id="edge3" class="edge">
<title>x6:e&#45;&gt;n10:w</title>
<path fill="none" stroke="black" d="M284.6,-165C308.15,-165 314.87,-153.08 333.82,-149.82"/>
<polygon fill="black" stroke="black" points="334.17,-153.3 343.86,-149 333.61,-146.32 334.17,-153.3"/>
</g>
</g>
</svg>
